<svg xmlns="http://www.w3.org/2000/svg" viewBox="0 0 64 48" width="64" height="48">
  <ellipse cx="36" cy="24" rx="22" ry="16" fill="#9C27B0"/>
  <polygon points="1,24 10,5 10,43" fill="#7B1FA2"/>
  <path d="M26,3 L34,0 L38,8 Q32,5 26,3" fill="#7B1FA2"/>
  <path d="M26,45 L34,48 L38,40 Q32,43 26,45" fill="#7B1FA2"/>
  <path d="M44,3 L48,0 L50,6" fill="#7B1FA2" opacity="0.7"/>
  <ellipse cx="18" cy="24" rx="5" ry="8" fill="#7B1FA2" opacity="0.4"/>
  <ellipse cx="26" cy="24" rx="4" ry="7" fill="#7B1FA2" opacity="0.3"/>
  <circle cx="48" cy="17" r="7" fill="white"/>
  <circle cx="49.5" cy="17" r="3.5" fill="#333"/>
  <circle cx="47" cy="15" r="1.5" fill="white"/>
  <path d="M56,27 Q60,29 56,32" stroke="#4A148C" stroke-width="1.2" fill="none"/>
  <ellipse cx="36" cy="24" rx="18" ry="12" fill="none" stroke="#7B1FA2" stroke-width="1" opacity="0.3"/>
</svg>
