<svg xmlns="http://www.w3.org/2000/svg" viewBox="0 0 48 36" width="48" height="36">
  <ellipse cx="27" cy="18" rx="16" ry="12" fill="#1A237E"/>
  <polygon points="1,18 8,4 8,32" fill="#0D1642"/>
  <path d="M20,2 L26,0 L28,6 Q24,4 20,2" fill="#0D1642"/>
  <path d="M20,34 L26,36 L28,30 Q24,32 20,34" fill="#0D1642"/>
  <ellipse cx="14" cy="18" rx="4" ry="6" fill="#0D1642" opacity="0.4"/>
  <ellipse cx="20" cy="18" rx="3" ry="5" fill="#0D1642" opacity="0.3"/>
  <!-- Bioluminescent spots -->
  <circle cx="16" cy="15" r="0.8" fill="#00E5FF"/>
  <circle cx="18" cy="21" r="0.7" fill="#00E5FF"/>
  <circle cx="22" cy="17" r="0.6" fill="#00E5FF"/>
  <circle cx="36" cy="13" r="5" fill="#00E5FF"/>
  <circle cx="37" cy="13" r="2.5" fill="#001F3F"/>
  <circle cx="35.5" cy="11.5" r="1" fill="#00E5FF"/>
  <path d="M42,20 Q45,21 42,23" stroke="#00E5FF" stroke-width="1" fill="none"/>
</svg>
