<svg xmlns="http://www.w3.org/2000/svg" viewBox="0 0 40 30" width="40" height="30">
  <ellipse cx="23" cy="15" rx="14" ry="10" fill="#311B92"/>
  <polygon points="1,15 6,4 6,26" fill="#1A0F52"/>
  <path d="M18,2 L23,0 L25,5 Q21,3 18,2" fill="#1A0F52"/>
  <path d="M18,28 L23,30 L25,25 Q21,27 18,28" fill="#1A0F52"/>
  <ellipse cx="12" cy="15" rx="3" ry="5" fill="#1A0F52" opacity="0.4"/>
  <!-- Bioluminescent spots -->
  <circle cx="14" cy="12" r="0.8" fill="#76FF03"/>
  <circle cx="16" cy="18" r="0.7" fill="#76FF03"/>
  <circle cx="20" cy="14" r="0.6" fill="#76FF03"/>
  <circle cx="30" cy="11" r="4" fill="#76FF03"/>
  <circle cx="31" cy="11" r="2" fill="#1A0F52"/>
  <circle cx="29.5" cy="10" r="0.8" fill="#76FF03"/>
  <path d="M35,17 Q38,18 35,20" stroke="#76FF03" stroke-width="0.8" fill="none"/>
</svg>
