<svg xmlns="http://www.w3.org/2000/svg" viewBox="0 0 56 42" width="56" height="42">
  <ellipse cx="32" cy="21" rx="20" ry="14" fill="#1B5E20"/>
  <polygon points="1,21 8,5 8,37" fill="#0D3010"/>
  <path d="M24,3 L32,0 L35,7 Q29,4 24,3" fill="#0D3010"/>
  <path d="M24,39 L32,42 L35,35 Q29,38 24,39" fill="#0D3010"/>
  <ellipse cx="16" cy="21" rx="4" ry="7" fill="#0D3010" opacity="0.4"/>
  <ellipse cx="24" cy="21" rx="3" ry="5" fill="#0D3010" opacity="0.3"/>
  <!-- Bioluminescent spots -->
  <circle cx="18" cy="17" r="1" fill="#FFFF00"/>
  <circle cx="22" cy="25" r="0.9" fill="#FFFF00"/>
  <circle cx="26" cy="19" r="0.8" fill="#FFFF00"/>
  <circle cx="30" cy="23" r="0.7" fill="#FFFF00"/>
  <circle cx="42" cy="15" r="5.5" fill="#FFFF00"/>
  <circle cx="43.2" cy="15" r="2.8" fill="#0D3010"/>
  <circle cx="41" cy="13.5" r="1.2" fill="#FFFF00"/>
  <path d="M49,24 Q53,26 49,29" stroke="#FFFF00" stroke-width="1" fill="none"/>
</svg>
